<svg xmlns="http://www.w3.org/2000/svg" xmlns:xlink="http://www.w3.org/1999/xlink" width="150" height="78" xmlns:v="https://vecta.io/nano"><defs><path id="A" d="M1.248 1.333h18.674v14.62H1.248z"/><path id="B" d="M0 1.25h149.431v19.206H0z"/></defs><g transform="translate(0 -1)" fill="none" fill-rule="evenodd"><g transform="translate(61.429 .096)"><mask id="C" fill="#fff"><use xlink:href="#A"/></mask><path d="M17.465 3.553c.186-.141.331-.219.436-.239.196-.029.173.177-.07.617l-2.796 5c-1.001 1.733-1.333 3.216-.997 4.451l.156.421c.19.416.459.764.794 1.06.644-.121.586-.517.433-.821-.24-.256-.423-.549-.526-.899-.066-.217-.099-.453-.099-.71a4.5 4.5 0 0 1 .091-.857c.061-.313.169-.657.323-1.031a10.56 10.56 0 0 1 .583-1.18l3.427-6.107.603-1.053a.41.41 0 0 0 0-.534c-.084-.104-.201-.16-.351-.17-.066 0-.136.02-.21.057-.401.15-.829.353-1.279.603-2.303 1.33-4.526 3.627-6.67 6.897a1.6 1.6 0 0 1-.28.307c-.15.094-.181-.05-.099-.434l.744-3.327c.234-.9.481-1.589.744-2.066.216-.393.463-.679.744-.857.28-.103.539-.29.64-.557.089-.419-.097-.631-.134-.65C12.819.773 10.888 2.9 10.888 2.9c-.356.413-.886 1.089-1.429 2.044L6.105 10.91c-.88 1.423-1.639 2.449-2.276 3.077-.693.654-1.417 1.014-2.176 1.08 0 0-.454.106-.401.453.036.229.093.433.457.433.251 0 1.873-.52 2.724-1.334.683-.666 1.493-1.747 2.429-3.244v-.029l3.357-5.967.533-.899c.084-.131.169-.211.253-.24.113-.027.126.09.041.353l-.224.786-.759 3.397-.829 3.806a.58.58 0 0 0-.013.127v.014.014.07c.037.206.154.323.351.35.017.01.036.014.056.014.216.009.36-.083.434-.28 2.304-4.344 4.77-7.459 7.401-9.339" fill="#dbaf5b" mask="url(#C)"/></g><path d="M87.666 12.187c-.937 1.571-1.89 2.697-2.899 3.501-1.01.829-2.073 1.317-3.161 1.603-.404.129-.824.209-1.246.266l-.359.731c-.414.837-.834 1.696-1.411 2.334-.631.721-1.414 1.156-2.504 1.063-.18-.021-.34-.041-.494-.084-.717-.159-1.226-.51-1.546-.929-.316-.439-.44-.964-.404-1.473l.034-.307c.42-1.88 2.079-1.96 4.223-2.069l1.803-.13 1.116-2.304c-.547.376-1.176.414-1.807.334l-.024-.003-.021-.003c-.611-.076-.989-.39-1.217-.796-.186-.379-.307-.76-.177-1.246l.779-2.017.861-1.716 1.291-2.489c.117-.23.4-.306.64-.187s.321.399.203.626l-1.27 2.494-.854 1.67-.681 1.741a.82.82 0 0 0 .08.721c.076.141.223.25.471.281l.024.004c1.4.176 2.361-1.021 3.291-2.547l.031-.064c.024-.019.024-.019.027-.041l.38-.707 1.786-3.406.024-.017.001-.023c.119-.229.406-.326.64-.187.239.12.346.4.227.631l-.026.017-.003.021-1.804 3.38-1.57 3.114-1.251 2.53.471-.117c.97-.254 1.891-.694 2.8-1.426.93-.726 1.829-1.77 2.683-3.239.12-.23.424-.304.639-.164.24.119.319.417.204.624h0zm-8.441 5.496l-1.271.081c-1.727.073-3.066.15-3.339 1.336l-.023.2c-.01.286.049.581.227.827.199.269.497.463.967.566.11.036.246.051.381.07.726.07 1.269-.263 1.69-.744.5-.557.887-1.354 1.274-2.129l.093-.207z" fill="#dbaf5b"/><g transform="translate(0 30.096)"><mask id="D" fill="#fff"><use xlink:href="#B"/></mask><path d="M14.333 7.325c0-3.153-2.43-5.634-6.901-5.634H.039c-.051 0-.051.414 0 .414h2.223c.051 0 .103.024.103.101V19.5c0 .079-.051.104-.103.104H.039c-.051 0-.051.413 0 .413h7.936c.051 0 .051-.413 0-.413H5.777c-.077 0-.13-.026-.13-.104v-7.237c.673.181 1.319.31 2.353.31 3.929 0 6.333-2.12 6.333-5.247h0zm-3.206 0c0 3.721-.801 4.834-3.127 4.834-1.06 0-1.629-.079-2.353-.414V2.207c0-.077.053-.101.13-.101h1.654c2.326 0 3.696 1.471 3.696 5.22h0zm22.929 3.541c0-5.324-3.62-9.617-8.143-9.617-4.704 0-8.117 4.473-8.117 9.617 0 5.299 3.646 9.589 8.117 9.589 4.523 0 8.143-4.29 8.143-9.589h0zm-3.516 0c0 5.066-.569 7.004-1.759 8.219-.774.751-1.731.984-2.869.984s-2.067-.233-2.817-.984c-1.214-1.214-1.784-3.153-1.784-8.219 0-4.42.57-7.031 1.784-8.246.75-.724 1.68-.957 2.817-.957s2.094.233 2.869.957c1.19 1.214 1.759 3.826 1.759 8.246h0zm23.729 0c0-5.324-3.619-9.617-8.141-9.617-4.704 0-8.117 4.473-8.117 9.617 0 5.299 3.644 9.589 8.117 9.589 4.523 0 8.141-4.29 8.141-9.589h0zm-3.514 0c0 5.066-.569 7.004-1.759 8.219-.774.751-1.731.984-2.869.984s-2.069-.233-2.817-.984c-1.216-1.214-1.784-3.153-1.784-8.219 0-4.42.569-7.031 1.784-8.246.749-.724 1.68-.957 2.817-.957s2.094.233 2.869.957c1.19 1.214 1.759 3.826 1.759 8.246h0zM69.08 2.105c.053 0 .053-.414 0-.414h-7.936c-.051 0-.051.414 0 .414h2.223c.077 0 .13.024.13.101V17.95c0 1.421-.543 2.12-1.783 2.12-.829 0-1.707-.75-1.707-1.579 0-1.136 1.164-.8 1.164-2.326 0-1.06-.827-1.966-1.81-1.966-.93 0-1.99.881-1.99 2.301 0 1.939 2.067 3.954 4.343 3.954 3.076 0 5.014-1.757 5.014-4.756V2.207c0-.077.051-.101.156-.101h2.196zm18.844 17.911c.051 0 .051-.413 0-.413h-2.171c-.104 0-.181-.051-.206-.077L78.929 1.328c-.026-.079-.387-.079-.413 0l-5.999 17.19c-.334 1.009-.387 1.086-.62 1.086H69.96c-.053 0-.053.413 0 .413h4.884c.079 0 .079-.413 0-.413H72.7c-.13 0-.104-.156.206-1.086l1.603-4.55h5.687l1.887 5.559c.026.026-.027.077-.104.077H79.73c-.051 0-.051.413 0 .413h8.194zm-7.859-6.461h-5.429l2.741-7.963 2.687 7.963zm29.52 1.601c0-3.076-2.663-4.911-5.764-4.911 2.094 0 4.524-1.834 4.524-4.316 0-2.869-2.637-4.239-5.791-4.239h-7.186c-.079 0-.079.414 0 .414h2.197c.077 0 .13.024.13.101V19.5c0 .079-.053.104-.13.104h-2.197c-.079 0-.079.413 0 .413h8.374c3.903 0 5.843-2.404 5.843-4.86h0zm-4.213-9.124c0 3.18-.594 4.007-2.406 4.007h-2.014V2.207c0-.077.05-.101.154-.101h1.033c2.457 0 3.233.877 3.233 3.927h0zm1.007 9.281c0 3.384-.981 4.29-3.309 4.29h-1.964c-.104 0-.154-.026-.154-.104v-9.071h1.757c2.507 0 3.67.747 3.67 4.886h0zm23.264-4.447c0-5.324-3.619-9.617-8.141-9.617-4.706 0-8.119 4.473-8.119 9.617 0 5.299 3.646 9.589 8.119 9.589 4.523 0 8.141-4.29 8.141-9.589h0zm-3.516 0c0 5.066-.569 7.004-1.757 8.219-.777.751-1.733.984-2.869.984s-2.069-.233-2.819-.984c-1.216-1.214-1.783-3.153-1.783-8.219 0-4.42.567-7.031 1.783-8.246.75-.724 1.68-.957 2.819-.957s2.091.233 2.869.957c1.189 1.214 1.757 3.826 1.757 8.246h0zm23.264 9.15c.051 0 .051-.413 0-.413h-2.404c-.103 0-.207-.051-.233-.077l-5.634-10.34 3.463-5.997c.57-.983.75-1.084.827-1.084h2.301c.051 0 .051-.414 0-.414h-5.196c-.051 0-.051.414 0 .414h1.99c.284 0 .259.076-.336 1.084l-3.257 5.584-3.567-6.567c0-.051 0-.101.104-.101h2.351c.051 0 .051-.414 0-.414h-8.607c-.053 0-.053.414 0 .414h2.429c.079 0 .181.05.207.101l5.17 9.41-4.006 6.901c-.544 1.009-.776 1.086-.829 1.086h-2.3c-.051 0-.051.413 0 .413h5.196c.051 0 .051-.413 0-.413h-2.016c-.234 0-.207-.077.387-1.086l3.774-6.461 4.033 7.47c.024.026 0 .077-.079.077h-2.377c-.053 0-.053.413 0 .413h8.607z" fill="#dbaf5b" mask="url(#D)"/></g><path d="M19.791 74.432h1.099v-6.14h2.113v-.973h-5.324v.973h2.113v6.14zm5.449 0h1.11V72.13h3.42v2.301h1.109v-7.113h-1.109v3.829h-3.42v-3.829h-1.11v7.113zm8.4 0h4.667v-.973h-3.557v-1.453h3.023v-.953h-3.023v-2.761h3.41v-.973h-4.52v7.113zm10.074 0h1.067l.409-1.003h3.253l.409 1.003h1.149l-3.116-7.186h-.126l-3.044 7.186zm1.851-1.934l.889-2.219c.179-.419.346-1.056.346-1.056s.177.637.356 1.056l.889 2.219h-2.479zm10.063-.261c.931-.409 1.423-1.163 1.423-2.26 0-1.633-1.099-2.657-3.064-2.657h-1.779v7.113h1.109v-1.83h.67c.199 0 .397-.021.596-.043l1.277 1.873h1.276l-1.507-2.196zm-2.311-.587v-3.357h.627c1.391 0 1.977.617 1.977 1.684 0 1.056-.564 1.673-1.977 1.673h-.627zm7.751 2.783h1.099v-6.14h2.113v-.973h-5.324v.973h2.113v6.14zm14.109-3.577c0-1.333-.889-2.259-2.099-2.259-1.803 0-3.43 1.773-3.43 3.711 0 1.331.9 2.244 2.111 2.244 1.803 0 3.417-1.787 3.417-3.697h0zm-1.171-.781c0 .713-.564 2.744-.86 3.283-.336.579-.74.889-1.36.889-.78 0-.967-.497-.967-1.157 0-.713.564-2.757.861-3.283.321-.579.713-.887 1.371-.887.754 0 .954.51.954 1.156h0zm10.223-4.209a1.41 1.41 0 0 0-1.493-1.426c-1.426 0-2.637 1.386-3.269 3.39-.109.256-.134.417-.243.751h-1.371c-.027 0-.149.31-.121.31h1.399l-1.763 6.82c-.699 2.139-.981 2.636-1.653 2.636-.283 0-.566-.147-.566-.431 0-.229.269-.497.269-.806 0-.296-.174-.51-.591-.51-.361 0-.67.296-.67.766 0 .686.697 1.303 1.477 1.303 1.507 0 2.407-1.451 3.093-3.483l1.71-6.294h1.587c.013 0 .107-.31.08-.31h-1.574l.283-.98c.78-2.477 1.319-2.84 1.83-2.84.39 0 .577.203.577.527 0 .227-.254.51-.254.846 0 .27.16.471.591.471.376 0 .673-.283.673-.74h0zm6.343 8.66c1.33 0 2.313-.49 2.773-.909v-2.773h-2.929v.973h1.914v1.256c-.397.273-1.026.46-1.759.46-1.61 0-2.656-1.14-2.656-2.656s1.036-2.649 2.521-2.649c.847 0 1.37.274 1.777.701l.743-.741c-.576-.649-1.433-.953-2.52-.953-2.113 0-3.651 1.517-3.651 3.641s1.569 3.649 3.786 3.649h0zm5.379-.093h1.099v-7.113h-1.099v7.113zm3.89 0h1.11V72.13h3.011v-.983h-3.011v-2.856h3.316v-.973h-4.426v7.113zm8.493 0h1.1v-6.14h2.113v-.973h-5.324v.973h2.111v6.14zm5.493 0h1.099v-7.113h-1.099v7.113zm9.436.074h.136v-7.187h-1.026v3.913a11.22 11.22 0 0 0 .074 1.024l-.66-.794-3.921-4.216h-.147v7.186h1.026V70.51c0-.441-.074-1.026-.074-1.026l.67.794 3.923 4.227zm6.36.019c1.329 0 2.311-.49 2.771-.909v-2.773h-2.929v.973h1.914v1.256c-.397.273-1.024.46-1.757.46-1.611 0-2.657-1.14-2.657-2.656s1.036-2.649 2.521-2.649c.846 0 1.37.274 1.777.701l.743-.741c-.576-.649-1.433-.953-2.52-.953-2.113 0-3.651 1.517-3.651 3.641s1.569 3.649 3.787 3.649h0z" fill="#dbaf5b"/></g></svg>