<?xml version="1.0" encoding="utf-8"?>
<!-- Generator: Adobe Illustrator 24.0.0, SVG Export Plug-In . SVG Version: 6.00 Build 0)  -->
<svg version="1.1" id="Layer_1" xmlns="http://www.w3.org/2000/svg" xmlns:xlink="http://www.w3.org/1999/xlink" x="0px" y="0px"
	 viewBox="0 0 102 92" style="enable-background:new 0 0 102 92;" xml:space="preserve">
<style type="text/css">
	.st0{fill-rule:evenodd;clip-rule:evenodd;fill:#DFB765;}
</style>
<title>Group 15</title>
<desc>Created with Sketch.</desc>
<g id="Page-1">
	<g id="Color-Guidedance-Copy" transform="translate(-1218.000000, -319.000000)">
		<g id="Group-15" transform="translate(1218.000000, 319.000000)">
			<path id="Fill-1" class="st0" d="M88.1,18.4c-0.4,0-0.8,0.4-0.8,0.8c0,0.4,0,0.9,0.1,1.3c0.3,1,1.2,1.8,1.4,2.8
				c0.8,4.9,1.6,9.8-1.1,14.5c-0.2,0.3-0.3,0.7-0.4,1.1c-0.6,2.3-1.3,4.5-1.6,6.8c-0.6,4.2-1.5,8.2-3.8,11.9
				c-5.6,8.7-13.7,14-23.3,17.1c-5.9,1.9-12.1,1.8-18.2,1.7c-1.5,0-1.9,0.6-1.5,1.9c0.8,3.4,2.5,6.3,4.7,8.9
				c4.4,5.2,15.9,7.3,22.3,0.3c3.3-3.6,7.4-5.9,12-7.6c3.8-1.5,7.6-3.1,11.3-4.8c3.1-1.5,5.9-3.5,7.7-6.5c1.6-2.7,1.4-4.7-0.5-7.2
				c-0.7-0.8-1.3-1.7-2.1-2.6c-0.3-0.4-0.2-1,0.2-1.3c0.4-0.3,0.8-0.5,1.1-0.7c3.2-2,5.5-4.6,5.6-8.7c0.1-5.6,0.4-11.1,0.5-16.7
				c0-1.3-0.6-2.7-1.3-3.8c-2.6-4.3-6.3-7.4-11.1-9.1c-0.2-0.1-0.4-0.1-0.7-0.1C88.3,18.4,88.2,18.4,88.1,18.4"/>
			<path id="Fill-3" class="st0" d="M78.7,30c-0.6,2-1.1,3.9-1.7,5.9C74.7,44,66.1,51,57.2,49.2c-1.6-0.3-3.1-0.7-4.6-1.2
				c-5.1-1.6-10.2-3.4-15.3-4.9c-5-1.5-9.2,0-12.5,4c-2.2,2.7-1.6,4.8,1.6,6c2.2,0.8,3.9,2.1,5.1,4.1c1,1.7,1.9,3.4,2.8,5.2
				c1.4,2.7,3.4,4.9,6.1,6.4c6.5,3.6,13.1,4,19.9,0.9c11.7-5.4,21.8-19,19.9-35.1c-0.2-1.6-0.5-3.1-0.7-4.7
				c-0.2-0.6-0.2-0.9-0.3-0.9C79,29.2,78.9,29.5,78.7,30"/>
			<path id="Fill-5" class="st0" d="M48.7,18.8c-4.4,4-7.4,9-9.6,14.4c-1.3,3.1-0.7,5.3,2.1,7.2c3.2,2.1,6.9,3.3,10.7,2.7
				c1.6-0.2,3.3-1.2,4.4-2.3c2.4-2.4,4.6-5.1,6.8-7.8c1.8-2.3,3.6-4.4,3.5-7.8c-0.7-5.4-5.1-5.3-7-5.2c-3.3,0.2-6.9,2.2-7.3,5.7
				c0,0.2,0.3,0.3,0.4,0.1c1-1.6,5.8-6.5,10.4-2.5c1.2,1.1,1.2,4.2,0.3,5.3c-1,1.3-2.3,2.5-3.7,3.4c-3,1.9-6.8,0.7-9.5-2.6
				c-1.7-2.1-1.4-4.8,0.9-7.5c4.1-4.8,13.3-5.6,18-1.4c0.6,0.5,2.8,2.6,2.1,7.7c-0.3,2.5-2.2,4.4-4,6.2c-2.1,2.1-4.3,4.2-6.2,6.4
				c-0.6,0.6-1.1,2-0.8,2.6c0.3,0.6,1.7,1.2,2.5,1c1.7-0.3,3.6-0.8,5-1.7c3.6-2.3,6-5.7,7.7-9.6c2.6-6.1,0.8-13.3-5.2-16.4
				c-3.2-1.7-6.7-2.1-10.1-2.5c-0.4-0.1-0.8-0.1-1.2-0.1C55,14.1,51.5,16.3,48.7,18.8"/>
			<path id="Fill-7" class="st0" d="M54.9,2.6C51,4.8,47,6.8,43.2,9.1c-2.3,1.4-4.6,3.1-6.4,5.2c-4.1,4.9-5.7,10.7-5.2,17.1
				c0.2,2.2,1.4,3.1,3.4,2.1c0.8-0.4,1.6-1.4,2-2.3c0.6-1.2,0.8-2.6,1.2-3.9c1.9-5.7,5.1-10.5,10.1-14c6.9-4.9,16.4-4.6,24.5,0.6
				c4.6,2.9,7.3,6.8,7.7,12.3c0.2,2.4,0.8,4.8,1.3,7.2c0.1,0.5,0.4,3.6,1,3.3c0.8-0.4,1.5-2.5,1.5-2.8c0.7-6.5,0.4-13-1.4-19.3
				c-1.3-4.7-4.3-7.9-9-9.3C70,4.1,66.1,3,62,2c-1-0.2-2.1-0.4-3.1-0.4C57.6,1.6,56.2,1.9,54.9,2.6"/>
			<path id="Fill-9" class="st0" d="M30.2,2.5c-1.3,1-3,1.6-4.5,2.2c-2,0.7-3.4,1.9-4,4c-0.5,1.5-0.9,3.1-0.9,4.6
				c-0.1,6.8,1.5,13.3,3.2,19.9c0.2,0.9,0.8,1.6,1.3,2.4c0.2,0.3,0.3,0.6,0.5,0.5c0.1,0,0.1-0.4,0.1-0.7c0-2.7,0-5.4,0-8.1
				c0.1-5.4,1.4-10.5,4.7-14.9c2-2.8,4.6-4.7,8-5.5c2.5-0.6,5-1.2,7.4-1.9c1.3-0.4,2.5-1.1,3.7-1.8c0.9-0.6,0.7-1.2-0.3-1.6
				c-0.5-0.2-1-0.3-1.6-0.3c-2.5-0.3-5.1-0.6-7.6-1C39.1,0.1,38.3,0,37.5,0C34.9,0,32.4,0.7,30.2,2.5"/>
			<path id="Fill-11" class="st0" d="M56.4,24.7c-1.7,0.9-1.7,3.1,0,4.1c1.5,0.9,3.5,0.6,4.2-0.8c0.1-0.1,0-0.3-0.2-0.3
				c-0.3,0-0.8,0.2-1.8,0.1c-0.6,0-1-0.6-0.9-1.1c0-0.3,0.1-0.6,0.1-0.9c0-0.3-0.1-0.8-0.3-1c-0.2-0.1-0.4-0.1-0.6-0.1
				C56.7,24.6,56.5,24.6,56.4,24.7"/>
			<path id="Fill-13" class="st0" d="M8.4,25.3C5.9,28.8,4.1,32.7,3.2,37C2.7,39.8,2,42.7,1,45.4c-1.6,4.3-1.6,8.9,2.6,11.9
				c5.3,3.8,10.6,7.5,15.9,11.1c2.8,1.9,5.9,2.9,9.2,3.4c2.7,0.4,5.4,0.5,8.1,0.7c0.5,0,0.7-0.6,0.3-0.9c-0.4-0.2-0.8-0.5-1.2-0.8
				c-2-1.7-4.3-3.3-6-5.4C26,60.8,22.6,55.9,19,51.2c-0.9-1.2-1.1-2.9-0.5-4.3c0.5-1.2,1.2-2.4,1.8-3.6c1.1-2,1.6-4.1,1-6.4
				c-1-4.3-2-8.6-3-12.8c-0.3-1.4-1.3-2.1-2.8-2.2c-0.1,0-0.3,0-0.4,0C12.3,21.8,10.1,23,8.4,25.3"/>
		</g>
	</g>
</g>
</svg>
